<?xml version="1.0" encoding="UTF-8"?>
<!DOCTYPE svg PUBLIC "-//W3C//DTD SVG 1.1//EN" "http://www.w3.org/Graphics/SVG/1.1/DTD/svg11.dtd">
<!-- Creator: CorelDRAW 2020 (64-Bit) -->
<svg xmlns="http://www.w3.org/2000/svg" xml:space="preserve" width="17px" height="16px" version="1.1" style="shape-rendering:geometricPrecision; text-rendering:geometricPrecision; image-rendering:optimizeQuality; fill-rule:evenodd; clip-rule:evenodd"
viewBox="0 0 16.81 16.29"
 xmlns:xlink="http://www.w3.org/1999/xlink"
 xmlns:xodm="http://www.corel.com/coreldraw/odm/2003">
 <defs>
  <style type="text/css">
   <![CDATA[
    .fil0 {fill:#ED2690;fill-rule:nonzero}
   ]]>
  </style>
 </defs>
 <g id="Слой_x0020_1">
  <metadata id="CorelCorpID_0Corel-Layer"/>
  <path class="fil0" d="M8.5 0l0 0c-0.56,0 -1.02,0.46 -1.02,1.02l0 14.25c0,0.57 0.46,1.02 1.02,1.02l0 0c0.56,0 1.02,-0.45 1.02,-1.02l0 -14.25c0,-0.56 -0.46,-1.02 -1.02,-1.02z"/>
  <path class="fil0" d="M9.04 0.54l0 0c-0.37,-0.42 -0.91,-0.55 -1.22,-0.28l-7.63 6.7c-0.3,0.27 -0.24,0.82 0.13,1.25l0 0c0.37,0.42 0.92,0.55 1.22,0.28l7.63 -6.7c0.3,-0.27 0.24,-0.82 -0.13,-1.25z"/>
  <path class="fil0" d="M7.87 0.44l0 0c0.38,-0.42 0.93,-0.54 1.23,-0.27l7.53 6.82c0.29,0.27 0.23,0.82 -0.15,1.24l0 0c-0.37,0.42 -0.92,0.54 -1.22,0.27l-7.53 -6.82c-0.3,-0.27 -0.23,-0.82 0.14,-1.24z"/>
 </g>
</svg>
