<?xml version="1.0" encoding="UTF-8"?>
<!DOCTYPE svg PUBLIC "-//W3C//DTD SVG 1.1//EN" "http://www.w3.org/Graphics/SVG/1.1/DTD/svg11.dtd">
<!-- Creator: CorelDRAW 2020 (64-Bit) -->
<svg xmlns="http://www.w3.org/2000/svg" xml:space="preserve" width="40px" height="18px" version="1.1" style="shape-rendering:geometricPrecision; text-rendering:geometricPrecision; image-rendering:optimizeQuality; fill-rule:evenodd; clip-rule:evenodd"
viewBox="0 0 39.03 17.56"
 xmlns:xlink="http://www.w3.org/1999/xlink"
 xmlns:xodm="http://www.corel.com/coreldraw/odm/2003">
 <defs>
  <style type="text/css">
   <![CDATA[
    .fil1 {fill:#E8E8E8;fill-rule:nonzero}
    .fil0 {fill:#ED2690;fill-rule:nonzero}
   ]]>
  </style>
 </defs>
 <g id="Слой_x0020_1">
  <metadata id="CorelCorpID_0Corel-Layer"/>
  <path class="fil0" d="M23.8 0l0 0c1.3,0 2.35,1.05 2.35,2.34l0 0c0,1.29 -1.05,2.34 -2.35,2.34l0 0c-1.29,0 -2.34,-1.05 -2.34,-2.34l0 0c0,-1.29 1.05,-2.34 2.34,-2.34l0 0z"/>
  <path class="fil0" d="M30.24 0l0 0c1.3,0 2.34,1.05 2.34,2.34l0.01 0c-0.01,1.29 -1.05,2.34 -2.35,2.34l0 0c-1.29,0 -2.34,-1.05 -2.34,-2.34l0 0c0,-1.29 1.05,-2.34 2.34,-2.34l0 0z"/>
  <path class="fil0" d="M36.69 0l0 0c1.29,0 2.34,1.05 2.34,2.34l0 0c0,1.29 -1.05,2.34 -2.34,2.34l0 0c-1.3,0 -2.35,-1.05 -2.35,-2.34l0 0c0,-1.29 1.05,-2.34 2.35,-2.34l0 0z"/>
  <path class="fil0" d="M36.69 6.44l0 0c1.29,0 2.34,1.05 2.34,2.34l0 0c0,1.29 -1.05,2.34 -2.34,2.34l0 0c-1.3,0 -2.35,-1.05 -2.35,-2.34l0 0c0,-1.29 1.05,-2.34 2.35,-2.34l0 0z"/>
  <path class="fil0" d="M30.24 6.44l0 0c1.3,0 2.34,1.05 2.34,2.34l0.01 0c-0.01,1.29 -1.05,2.34 -2.35,2.34l0 0c-1.29,0 -2.34,-1.05 -2.34,-2.34l0 0c0,-1.29 1.05,-2.34 2.34,-2.34l0 0z"/>
  <path class="fil0" d="M23.8 6.44l0 0c1.3,0 2.35,1.05 2.35,2.34l0 0c0,1.29 -1.05,2.34 -2.35,2.34l0 0c-1.29,0 -2.34,-1.05 -2.34,-2.34l0 0c0,-1.29 1.05,-2.34 2.34,-2.34l0 0z"/>
  <path class="fil0" d="M23.8 12.88l0 0c1.3,0 2.35,1.05 2.35,2.34l0 0c0,1.29 -1.05,2.34 -2.35,2.34l0 0c-1.29,0 -2.34,-1.05 -2.34,-2.34l0 0c0,-1.29 1.05,-2.34 2.34,-2.34l0 0z"/>
  <path class="fil0" d="M30.24 12.88l0 0c1.3,0 2.34,1.05 2.34,2.34l0.01 0c-0.01,1.29 -1.05,2.34 -2.35,2.34l0 0c-1.29,0 -2.34,-1.05 -2.34,-2.34l0 0c0,-1.29 1.05,-2.34 2.34,-2.34l0 0z"/>
  <path class="fil0" d="M36.69 12.88l0 0c1.29,0 2.34,1.05 2.34,2.34l0 0c0,1.29 -1.05,2.34 -2.34,2.34l0 0c-1.3,0 -2.35,-1.05 -2.35,-2.34l0 0c0,-1.29 1.05,-2.34 2.35,-2.34l0 0z"/>
  <path class="fil1" d="M2.34 0l0 0c1.29,0 2.34,1.05 2.34,2.34l0 0c0,1.29 -1.05,2.34 -2.34,2.34l0 0c-1.29,0 -2.34,-1.05 -2.34,-2.34l0 0c0,-1.29 1.05,-2.34 2.34,-2.34l0 0z"/>
  <path class="fil1" d="M8.78 0l0 0c1.29,0 2.34,1.05 2.34,2.34l0 0c0,1.29 -1.05,2.34 -2.34,2.34l0 0c-1.29,0 -2.34,-1.05 -2.34,-2.34l0 0c0,-1.29 1.05,-2.34 2.34,-2.34l0 0z"/>
  <path class="fil1" d="M15.22 0l0 0c1.3,0 2.34,1.05 2.34,2.34l0 0c0,1.29 -1.04,2.34 -2.34,2.34l0 0c-1.29,0 -2.34,-1.05 -2.34,-2.34l0 0c0,-1.29 1.05,-2.34 2.34,-2.34l0 0z"/>
  <path class="fil1" d="M15.22 6.44l0 0c1.3,0 2.34,1.05 2.34,2.34l0 0c0,1.29 -1.04,2.34 -2.34,2.34l0 0c-1.29,0 -2.34,-1.05 -2.34,-2.34l0 0c0,-1.29 1.05,-2.34 2.34,-2.34l0 0z"/>
  <path class="fil1" d="M8.78 6.44l0 0c1.29,0 2.34,1.05 2.34,2.34l0 0c0,1.29 -1.05,2.34 -2.34,2.34l0 0c-1.29,0 -2.34,-1.05 -2.34,-2.34l0 0c0,-1.29 1.05,-2.34 2.34,-2.34l0 0z"/>
  <path class="fil1" d="M2.34 6.44l0 0c1.29,0 2.34,1.05 2.34,2.34l0 0c0,1.29 -1.05,2.34 -2.34,2.34l0 0c-1.29,0 -2.34,-1.05 -2.34,-2.34l0 0c0,-1.29 1.05,-2.34 2.34,-2.34l0 0z"/>
  <path class="fil1" d="M2.34 12.88l0 0c1.29,0 2.34,1.05 2.34,2.34l0 0c0,1.29 -1.05,2.34 -2.34,2.34l0 0c-1.29,0 -2.34,-1.05 -2.34,-2.34l0 0c0,-1.29 1.05,-2.34 2.34,-2.34l0 0z"/>
  <path class="fil1" d="M8.78 12.88l0 0c1.29,0 2.34,1.05 2.34,2.34l0 0c0,1.29 -1.05,2.34 -2.34,2.34l0 0c-1.29,0 -2.34,-1.05 -2.34,-2.34l0 0c0,-1.29 1.05,-2.34 2.34,-2.34l0 0z"/>
  <path class="fil1" d="M15.22 12.88l0 0c1.3,0 2.34,1.05 2.34,2.34l0 0c0,1.29 -1.04,2.34 -2.34,2.34l0 0c-1.29,0 -2.34,-1.05 -2.34,-2.34l0 0c0,-1.29 1.05,-2.34 2.34,-2.34l0 0z"/>
 </g>
</svg>
