<?xml version="1.0" encoding="UTF-8"?>
<!DOCTYPE svg PUBLIC "-//W3C//DTD SVG 1.1//EN" "http://www.w3.org/Graphics/SVG/1.1/DTD/svg11.dtd">
<!-- Creator: CorelDRAW 2020 (64-Bit) -->
<svg xmlns="http://www.w3.org/2000/svg" xml:space="preserve" width="44px" height="18px" version="1.1" style="shape-rendering:geometricPrecision; text-rendering:geometricPrecision; image-rendering:optimizeQuality; fill-rule:evenodd; clip-rule:evenodd"
viewBox="0 0 43.03 17.6"
 xmlns:xlink="http://www.w3.org/1999/xlink"
 xmlns:xodm="http://www.corel.com/coreldraw/odm/2003">
 <defs>
  <style type="text/css">
   <![CDATA[
    .fil0 {fill:#E8E8E8;fill-rule:nonzero}
    .fil1 {fill:#ED2690;fill-rule:nonzero}
   ]]>
  </style>
 </defs>
 <g id="Слой_x0020_1">
  <metadata id="CorelCorpID_0Corel-Layer"/>
  <path class="fil0" d="M3.81 0l0 0c2.11,0 3.82,1.71 3.82,3.81l0 0c0,2.11 -1.71,3.82 -3.82,3.82l0 0c-2.1,0 -3.81,-1.71 -3.81,-3.82l0 0c0,-2.1 1.71,-3.81 3.81,-3.81z"/>
  <path class="fil0" d="M13.79 0l0 0c2.11,0 3.81,1.71 3.81,3.81l0 0c0,2.11 -1.7,3.82 -3.81,3.82l0 0c-2.11,0 -3.81,-1.71 -3.81,-3.82l0 0c0,-2.1 1.7,-3.81 3.81,-3.81z"/>
  <path class="fil0" d="M13.79 9.97l0 0c2.11,0 3.81,1.71 3.81,3.82l0 0c0,2.1 -1.7,3.81 -3.81,3.81l0 0c-2.11,0 -3.81,-1.71 -3.81,-3.81l0 0c0,-2.11 1.7,-3.82 3.81,-3.82z"/>
  <path class="fil0" d="M3.81 9.97l0 0c2.11,0 3.82,1.71 3.82,3.82l0 0c0,2.1 -1.71,3.81 -3.82,3.81l0 0c-2.1,0 -3.81,-1.71 -3.81,-3.81l0 0c0,-2.11 1.71,-3.82 3.81,-3.82z"/>
  <path class="fil1" d="M29.24 0l0 0c2.1,0 3.81,1.71 3.81,3.81l0 0c0,2.11 -1.71,3.82 -3.81,3.82l0 0c-2.11,0 -3.82,-1.71 -3.82,-3.82l0 0c0,-2.1 1.71,-3.81 3.82,-3.81z"/>
  <path class="fil1" d="M39.21 0l0 0c2.11,0 3.82,1.71 3.82,3.81l0 0c0,2.11 -1.71,3.82 -3.82,3.82l0 0c-2.1,0 -3.81,-1.71 -3.81,-3.82l0 0c0,-2.1 1.71,-3.81 3.81,-3.81z"/>
  <path class="fil1" d="M39.21 9.97l0 0c2.11,0 3.82,1.71 3.82,3.82l0 0c0,2.1 -1.71,3.81 -3.82,3.81l0 0c-2.1,0 -3.81,-1.71 -3.81,-3.81l0 0c0,-2.11 1.71,-3.82 3.81,-3.82z"/>
  <path class="fil1" d="M29.24 9.97l0 0c2.1,0 3.81,1.71 3.81,3.82l0 0c0,2.1 -1.71,3.81 -3.81,3.81l0 0c-2.11,0 -3.82,-1.71 -3.82,-3.81l0 0c0,-2.11 1.71,-3.82 3.82,-3.82z"/>
 </g>
</svg>
