<?xml version="1.0" encoding="UTF-8"?>
<!DOCTYPE svg PUBLIC "-//W3C//DTD SVG 1.1//EN" "http://www.w3.org/Graphics/SVG/1.1/DTD/svg11.dtd">
<!-- Creator: CorelDRAW 2020 (64-Bit) -->
<svg xmlns="http://www.w3.org/2000/svg" xml:space="preserve" width="125px" height="56px" version="1.1" style="shape-rendering:geometricPrecision; text-rendering:geometricPrecision; image-rendering:optimizeQuality; fill-rule:evenodd; clip-rule:evenodd"
viewBox="0 0 121.96 54.88"
 xmlns:xlink="http://www.w3.org/1999/xlink"
 xmlns:xodm="http://www.corel.com/coreldraw/odm/2003">
 <defs>
  <style type="text/css">
   <![CDATA[
    .fil1 {fill:#E8E8E8;fill-rule:nonzero}
    .fil0 {fill:#ED2690;fill-rule:nonzero}
   ]]>
  </style>
 </defs>
 <g id="Слой_x0020_1">
  <metadata id="CorelCorpID_0Corel-Layer"/>
  <path class="fil0" d="M74.39 0l0 0c4.04,0 7.32,3.28 7.32,7.32l0 0c0,4.04 -3.28,7.32 -7.32,7.32l0 0c-4.04,0 -7.32,-3.28 -7.32,-7.32l0 0c0,-4.04 3.28,-7.32 7.32,-7.32l0 0z"/>
  <path class="fil0" d="M94.51 0l0 0c4.04,0 7.32,3.28 7.32,7.32l0 0c0,4.04 -3.28,7.32 -7.32,7.32l0 0c-4.04,0 -7.32,-3.28 -7.32,-7.32l0 0c0,-4.04 3.28,-7.32 7.32,-7.32l0 0z"/>
  <path class="fil0" d="M114.64 0l0 0c4.04,0 7.32,3.28 7.32,7.32l0 0c0,4.04 -3.28,7.32 -7.32,7.32l0 0c-4.04,0 -7.31,-3.28 -7.31,-7.32l0 0c0,-4.04 3.27,-7.32 7.31,-7.32l0 0z"/>
  <path class="fil0" d="M114.64 20.12l0 0c4.04,0 7.32,3.28 7.32,7.32l0 0c0,4.04 -3.28,7.31 -7.32,7.31l0 0.01c-4.04,-0.01 -7.31,-3.28 -7.31,-7.32l0 0c0,-4.04 3.27,-7.32 7.31,-7.32l0 0z"/>
  <path class="fil0" d="M94.51 20.12l0 0c4.04,0 7.32,3.28 7.32,7.32l0 0c0,4.04 -3.28,7.31 -7.32,7.31l0 0.01c-4.04,-0.01 -7.32,-3.28 -7.32,-7.32l0 0c0,-4.04 3.28,-7.32 7.32,-7.32l0 0z"/>
  <path class="fil0" d="M74.39 20.12l0 0c4.04,0 7.32,3.28 7.32,7.32l0 0c0,4.04 -3.28,7.31 -7.32,7.31l0 0.01c-4.04,-0.01 -7.32,-3.28 -7.32,-7.32l0 0c0,-4.04 3.28,-7.32 7.32,-7.32l0 0z"/>
  <path class="fil0" d="M74.39 40.24l0 0c4.04,0 7.32,3.28 7.32,7.32l0 0c0,4.04 -3.28,7.31 -7.32,7.31l0 0.01c-4.04,-0.01 -7.32,-3.28 -7.32,-7.32l0 0c0,-4.04 3.28,-7.32 7.32,-7.32l0 0z"/>
  <path class="fil0" d="M94.51 40.24l0 0c4.04,0 7.32,3.28 7.32,7.32l0 0c0,4.04 -3.28,7.31 -7.32,7.31l0 0.01c-4.04,-0.01 -7.32,-3.28 -7.32,-7.32l0 0c0,-4.04 3.28,-7.32 7.32,-7.32l0 0z"/>
  <path class="fil0" d="M114.64 40.24l0 0c4.04,0 7.32,3.28 7.32,7.32l0 0c0,4.04 -3.28,7.31 -7.32,7.31l0 0.01c-4.04,-0.01 -7.31,-3.28 -7.31,-7.32l0 0c0,-4.04 3.27,-7.32 7.31,-7.32l0 0z"/>
  <path class="fil1" d="M7.32 0l0 0c4.04,0 7.32,3.28 7.32,7.32l-0.01 0c0.01,4.04 -3.27,7.32 -7.31,7.32l0 0c-4.04,0 -7.32,-3.28 -7.32,-7.32l0 0c0,-4.04 3.28,-7.32 7.32,-7.32l0 0z"/>
  <path class="fil1" d="M27.44 0l0 0c4.04,0 7.32,3.28 7.32,7.32l0 0c0,4.04 -3.28,7.32 -7.32,7.32l0 0c-4.04,0 -7.32,-3.28 -7.32,-7.32l0 0c0,-4.04 3.28,-7.32 7.32,-7.32l0 0z"/>
  <path class="fil1" d="M47.57 0l0 0c4.04,0 7.32,3.28 7.32,7.32l0 0c0,4.04 -3.28,7.32 -7.32,7.32l0 0c-4.04,0 -7.32,-3.28 -7.32,-7.32l0 0c0,-4.04 3.28,-7.32 7.32,-7.32l0 0z"/>
  <path class="fil1" d="M47.57 20.12l0 0c4.04,0 7.32,3.28 7.32,7.32l0 0c0,4.04 -3.28,7.31 -7.32,7.31l0 0.01c-4.04,-0.01 -7.32,-3.28 -7.32,-7.32l0 0c0,-4.04 3.28,-7.32 7.32,-7.32l0 0z"/>
  <path class="fil1" d="M27.44 20.12l0 0c4.04,0 7.32,3.28 7.32,7.32l0 0c0,4.04 -3.28,7.31 -7.32,7.31l0 0.01c-4.04,-0.01 -7.32,-3.28 -7.32,-7.32l0 0c0,-4.04 3.28,-7.32 7.32,-7.32l0 0z"/>
  <path class="fil1" d="M7.32 20.12l0 0c4.04,0 7.32,3.28 7.32,7.32l-0.01 0c0.01,4.04 -3.27,7.31 -7.31,7.31l0 0.01c-4.04,-0.01 -7.32,-3.28 -7.32,-7.32l0 0c0,-4.04 3.28,-7.32 7.32,-7.32l0 0z"/>
  <path class="fil1" d="M7.32 40.24l0 0c4.04,0 7.32,3.28 7.32,7.32l-0.01 0c0.01,4.04 -3.27,7.31 -7.31,7.31l0 0.01c-4.04,-0.01 -7.32,-3.28 -7.32,-7.32l0 0c0,-4.04 3.28,-7.32 7.32,-7.32l0 0z"/>
  <path class="fil1" d="M27.44 40.24l0 0c4.04,0 7.32,3.28 7.32,7.32l0 0c0,4.04 -3.28,7.31 -7.32,7.31l0 0.01c-4.04,-0.01 -7.32,-3.28 -7.32,-7.32l0 0c0,-4.04 3.28,-7.32 7.32,-7.32l0 0z"/>
  <path class="fil1" d="M47.57 40.24l0 0c4.04,0 7.32,3.28 7.32,7.32l0 0c0,4.04 -3.28,7.31 -7.32,7.31l0 0.01c-4.04,-0.01 -7.32,-3.28 -7.32,-7.32l0 0c0,-4.04 3.28,-7.32 7.32,-7.32l0 0z"/>
 </g>
</svg>
