<?xml version="1.0" encoding="UTF-8"?>
<!DOCTYPE svg PUBLIC "-//W3C//DTD SVG 1.1//EN" "http://www.w3.org/Graphics/SVG/1.1/DTD/svg11.dtd">
<!-- Creator: CorelDRAW 2020 (64-Bit) -->
<svg xmlns="http://www.w3.org/2000/svg" xml:space="preserve" width="40px" height="40px" version="1.1" style="shape-rendering:geometricPrecision; text-rendering:geometricPrecision; image-rendering:optimizeQuality; fill-rule:evenodd; clip-rule:evenodd"
viewBox="0 0 40 40"
 xmlns:xlink="http://www.w3.org/1999/xlink"
 xmlns:xodm="http://www.corel.com/coreldraw/odm/2003">
 <defs>
  <style type="text/css">
   <![CDATA[
    .str0 {stroke:white;stroke-miterlimit:22.9256}
    .fil0 {fill:#ED2690;fill-rule:nonzero}
    .fil1 {fill:white;fill-rule:nonzero}
   ]]>
  </style>
 </defs>
 <g id="Слой_x0020_1">
  <metadata id="CorelCorpID_0Corel-Layer"/>
  <circle class="fil0" cx="20" cy="20" r="20"/>
  <path class="fil1 str0" d="M24.47 23.45c-0.95,0 -1.8,0.34 -2.43,0.9l-5.18 -3.1c0.13,-0.34 0.2,-0.71 0.2,-1.09 0,-0.38 -0.07,-0.75 -0.2,-1.09l5.41 -3.23c0.6,0.44 1.36,0.71 2.2,0.71 1.94,0 3.53,-1.47 3.53,-3.27 0,-1.81 -1.59,-3.28 -3.53,-3.28 -1.95,0 -3.54,1.47 -3.54,3.28 0,0.48 0.12,0.94 0.33,1.36l-5.29 3.15c-0.63,-0.57 -1.49,-0.91 -2.44,-0.91 -1.94,0 -3.53,1.47 -3.53,3.28 0,1.81 1.58,3.28 3.53,3.28 0.95,0 1.81,-0.35 2.44,-0.91l5.17 3.09c-0.14,0.34 -0.21,0.72 -0.21,1.1 0,1.81 1.59,3.28 3.54,3.28 1.94,0 3.53,-1.47 3.53,-3.28 0,-1.8 -1.59,-3.27 -3.53,-3.27zm0 -11.92c1.04,0 1.89,0.78 1.89,1.75 0,0.97 -0.85,1.76 -1.89,1.76 -1.05,0 -1.9,-0.79 -1.9,-1.76 0,-0.97 0.85,-1.75 1.9,-1.75zm-10.94 10.39c-1.04,0 -1.89,-0.79 -1.89,-1.76 0,-0.96 0.85,-1.75 1.89,-1.75 1.05,0 1.9,0.79 1.9,1.75 0,0.97 -0.85,1.76 -1.9,1.76zm10.94 6.55c-1.05,0 -1.9,-0.78 -1.9,-1.75 0,-0.97 0.85,-1.76 1.9,-1.76 1.04,0 1.89,0.79 1.89,1.76 0,0.97 -0.85,1.75 -1.89,1.75z"/>
 </g>
</svg>
