<?xml version="1.0" encoding="UTF-8"?>
<!DOCTYPE svg PUBLIC "-//W3C//DTD SVG 1.1//EN" "http://www.w3.org/Graphics/SVG/1.1/DTD/svg11.dtd">
<!-- Creator: CorelDRAW 2020 (64-Bit) -->
<svg xmlns="http://www.w3.org/2000/svg" xml:space="preserve" width="194px" height="15px" version="1.1" style="shape-rendering:geometricPrecision; text-rendering:geometricPrecision; image-rendering:optimizeQuality; fill-rule:evenodd; clip-rule:evenodd"
viewBox="0 0 194 14.92"
 xmlns:xlink="http://www.w3.org/1999/xlink"
 xmlns:xodm="http://www.corel.com/coreldraw/odm/2003">
 <defs>
  <style type="text/css">
   <![CDATA[
    .str0 {stroke:#ED2690;stroke-width:0.99;stroke-miterlimit:22.9256}
    .fil1 {fill:none}
    .fil0 {fill:#ED2690}
   ]]>
  </style>
 </defs>
 <g id="Слой_x0020_1">
  <metadata id="CorelCorpID_0Corel-Layer"/>
  <path class="fil0 str0" d="M87.38 0.73l1.77 4.39 4.54 0.41c0.31,0.03 0.44,0.44 0.2,0.66l-3.44 3.13 1.03 4.64c0.07,0.33 -0.26,0.58 -0.53,0.41l-3.9 -2.46 -3.9 2.46c-0.27,0.17 -0.6,-0.08 -0.53,-0.41l1.03 -4.64 -3.44 -3.13c-0.24,-0.22 -0.11,-0.63 0.2,-0.66l4.54 -0.41 1.77 -4.39c0.12,-0.31 0.54,-0.31 0.66,0z"/>
  <path class="fil0 str0" d="M7.79 0.73l1.77 4.39 4.54 0.41c0.31,0.03 0.44,0.44 0.2,0.66l-3.44 3.13 1.03 4.64c0.07,0.33 -0.26,0.58 -0.53,0.41l-3.9 -2.46 -3.9 2.46c-0.27,0.17 -0.6,-0.08 -0.53,-0.41l1.03 -4.64 -3.44 -3.13c-0.24,-0.22 -0.11,-0.63 0.2,-0.66l4.54 -0.41 1.77 -4.39c0.12,-0.31 0.54,-0.31 0.66,0z"/>
  <path class="fil0 str0" d="M27.69 0.73l1.77 4.39 4.53 0.41c0.32,0.03 0.45,0.44 0.21,0.66l-3.44 3.13 1.03 4.64c0.07,0.33 -0.26,0.58 -0.53,0.41l-3.9 -2.46 -3.9 2.46c-0.27,0.17 -0.6,-0.08 -0.53,-0.41l1.03 -4.64 -3.44 -3.13c-0.24,-0.22 -0.11,-0.63 0.2,-0.66l4.54 -0.41 1.77 -4.39c0.12,-0.31 0.53,-0.31 0.66,0z"/>
  <path class="fil0 str0" d="M47.59 0.73l1.77 4.39 4.53 0.41c0.32,0.03 0.45,0.44 0.21,0.66l-3.44 3.13 1.03 4.64c0.07,0.33 -0.27,0.58 -0.54,0.41l-3.89 -2.46 -3.9 2.46c-0.27,0.17 -0.61,-0.08 -0.53,-0.41l1.03 -4.64 -3.44 -3.13c-0.24,-0.22 -0.12,-0.63 0.2,-0.66l4.54 -0.41 1.77 -4.39c0.12,-0.31 0.53,-0.31 0.66,0z"/>
  <path class="fil0 str0" d="M67.48 0.73l1.77 4.39 4.54 0.41c0.31,0.03 0.44,0.44 0.2,0.66l-3.44 3.13 1.03 4.64c0.08,0.33 -0.26,0.58 -0.53,0.41l-3.9 -2.46 -3.89 2.46c-0.27,0.17 -0.61,-0.08 -0.54,-0.41l1.03 -4.64 -3.44 -3.13c-0.24,-0.22 -0.11,-0.63 0.21,-0.66l4.53 -0.41 1.77 -4.39c0.13,-0.31 0.54,-0.31 0.66,0z"/>
  <path class="fil1 str0" d="M186.87 0.73l1.77 4.39 4.54 0.41c0.31,0.03 0.44,0.44 0.2,0.66l-3.44 3.13 1.03 4.64c0.07,0.33 -0.26,0.58 -0.53,0.41l-3.9 -2.46 -3.9 2.46c-0.27,0.17 -0.6,-0.08 -0.53,-0.41l1.03 -4.64 -3.44 -3.13c-0.24,-0.22 -0.11,-0.63 0.2,-0.66l4.54 -0.41 1.77 -4.39c0.12,-0.31 0.54,-0.31 0.66,0z"/>
  <path class="fil1 str0" d="M107.28 0.73l1.77 4.39 4.54 0.41c0.31,0.03 0.44,0.44 0.2,0.66l-3.44 3.13 1.03 4.64c0.07,0.33 -0.26,0.58 -0.53,0.41l-3.9 -2.46 -3.9 2.46c-0.27,0.17 -0.6,-0.08 -0.53,-0.41l1.03 -4.64 -3.44 -3.13c-0.24,-0.22 -0.11,-0.63 0.2,-0.66l4.54 -0.41 1.77 -4.39c0.12,-0.31 0.53,-0.31 0.66,0z"/>
  <path class="fil1 str0" d="M127.18 0.73l1.77 4.39 4.53 0.41c0.32,0.03 0.45,0.44 0.21,0.66l-3.44 3.13 1.03 4.64c0.07,0.33 -0.27,0.58 -0.54,0.41l-3.89 -2.46 -3.9 2.46c-0.27,0.17 -0.61,-0.08 -0.53,-0.41l1.03 -4.64 -3.44 -3.13c-0.24,-0.22 -0.12,-0.63 0.2,-0.66l4.54 -0.41 1.77 -4.39c0.12,-0.31 0.53,-0.31 0.66,0z"/>
  <path class="fil1 str0" d="M147.07 0.73l1.78 4.39 4.53 0.41c0.32,0.03 0.44,0.44 0.2,0.66l-3.44 3.13 1.04 4.64c0.07,0.33 -0.27,0.58 -0.54,0.41l-3.9 -2.46 -3.89 2.46c-0.27,0.17 -0.61,-0.08 -0.54,-0.41l1.03 -4.64 -3.44 -3.13c-0.23,-0.22 -0.11,-0.63 0.21,-0.66l4.53 -0.41 1.77 -4.39c0.13,-0.31 0.54,-0.31 0.66,0z"/>
  <path class="fil1 str0" d="M166.97 0.73l1.77 4.39 4.54 0.41c0.31,0.03 0.44,0.44 0.2,0.66l-3.44 3.13 1.03 4.64c0.07,0.33 -0.26,0.58 -0.53,0.41l-3.9 -2.46 -3.9 2.46c-0.27,0.17 -0.6,-0.08 -0.53,-0.41l1.03 -4.64 -3.44 -3.13c-0.24,-0.22 -0.11,-0.63 0.2,-0.66l4.54 -0.41 1.77 -4.39c0.13,-0.31 0.54,-0.31 0.66,0z"/>
 </g>
</svg>
